<?xml version="1.0" encoding="us-ascii" standalone="no"?><svg xmlns="http://www.w3.org/2000/svg" xmlns:xlink="http://www.w3.org/1999/xlink" contentStyleType="text/css" height="329px" preserveAspectRatio="none" style="width:667px;height:329px;background:#FFFFFF;" version="1.1" viewBox="0 0 667 329" width="667px" zoomAndPan="magnify"><defs/><g><!--cluster ohm--><g id="cluster_ohm"><path d="M8.5,6 L41.5,6 A3.75,3.75 0 0 1 44,8.5 L51,28.4883 L657.5,28.4883 A2.5,2.5 0 0 1 660,30.9883 L660,319.5 A2.5,2.5 0 0 1 657.5,322 L8.5,322 A2.5,2.5 0 0 1 6,319.5 L6,8.5 A2.5,2.5 0 0 1 8.5,6 " fill="none" style="stroke:#000000;stroke-width:1.5;"/><line style="stroke:#000000;stroke-width:1.5;" x1="6" x2="51" y1="28.4883" y2="28.4883"/><text fill="#000000" font-family="sans-serif" font-size="14" font-weight="bold" lengthAdjust="spacing" textLength="32" x="10" y="21.5352">ohm</text></g><!--cluster softa--><g id="cluster_softa"><path d="M32.5,49 L70.5,49 A3.75,3.75 0 0 1 73,51.5 L80,71.4883 L633.5,71.4883 A2.5,2.5 0 0 1 636,73.9883 L636,295.5 A2.5,2.5 0 0 1 633.5,298 L32.5,298 A2.5,2.5 0 0 1 30,295.5 L30,51.5 A2.5,2.5 0 0 1 32.5,49 " fill="none" style="stroke:#000000;stroke-width:1.5;"/><line style="stroke:#000000;stroke-width:1.5;" x1="30" x2="80" y1="71.4883" y2="71.4883"/><text fill="#000000" font-family="sans-serif" font-size="14" font-weight="bold" lengthAdjust="spacing" textLength="37" x="34" y="64.5352">softa</text></g><!--cluster a05--><g id="cluster_a05"><path d="M56.5,92 L83.5,92 A3.75,3.75 0 0 1 86,94.5 L93,114.4883 L609.5,114.4883 A2.5,2.5 0 0 1 612,116.9883 L612,271.5 A2.5,2.5 0 0 1 609.5,274 L56.5,274 A2.5,2.5 0 0 1 54,271.5 L54,94.5 A2.5,2.5 0 0 1 56.5,92 " fill="none" style="stroke:#000000;stroke-width:1.5;"/><line style="stroke:#000000;stroke-width:1.5;" x1="54" x2="93" y1="114.4883" y2="114.4883"/><text fill="#000000" font-family="sans-serif" font-size="14" font-weight="bold" lengthAdjust="spacing" textLength="26" x="58" y="107.5352">a05</text></g><!--cluster utils--><g id="cluster_utils"><path d="M80.5,135 L114.5,135 A3.75,3.75 0 0 1 117,137.5 L124,157.4883 L585.5,157.4883 A2.5,2.5 0 0 1 588,159.9883 L588,247.5 A2.5,2.5 0 0 1 585.5,250 L80.5,250 A2.5,2.5 0 0 1 78,247.5 L78,137.5 A2.5,2.5 0 0 1 80.5,135 " fill="none" style="stroke:#000000;stroke-width:1.5;"/><line style="stroke:#000000;stroke-width:1.5;" x1="78" x2="124" y1="157.4883" y2="157.4883"/><text fill="#000000" font-family="sans-serif" font-size="14" font-weight="bold" lengthAdjust="spacing" textLength="33" x="82" y="150.5352">utils</text></g><!--class PlantBedUtility--><g id="elem_PlantBedUtility"><rect codeLine="2" fill="#F1F1F1" height="64.4883" id="PlantBedUtility" rx="2.5" ry="2.5" style="stroke:#181818;stroke-width:0.5;" width="477" x="94.5" y="170"/><ellipse cx="274.25" cy="186" fill="#A9DCDF" rx="11" ry="11" style="stroke:#181818;stroke-width:1.0;"/><path d="M274.1133,181.3481 L272.9595,186.4199 L275.2754,186.4199 Z M272.6191,179.1069 L275.6157,179.1069 L278.9609,191.5 L276.5122,191.5 L275.7485,188.437 L272.4697,188.437 L271.7227,191.5 L269.2739,191.5 Z " fill="#000000"/><ellipse cx="299.75" cy="185.5" fill="#84BE84" rx="3" ry="3" style="stroke:#038048;stroke-width:1.0;"/><text fill="#000000" font-family="sans-serif" font-size="14" font-style="italic" lengthAdjust="spacing" textLength="98" x="305.75" y="191.291">PlantBedUtility</text><line style="stroke:#181818;stroke-width:0.5;" x1="95.5" x2="570.5" y1="202" y2="202"/><line style="stroke:#181818;stroke-width:0.5;" x1="95.5" x2="570.5" y1="210" y2="210"/><ellipse cx="105.5" cy="223.7441" fill="#84BE84" rx="3" ry="3" style="stroke:#038048;stroke-width:1.0;"/><text fill="#000000" font-family="sans-serif" font-size="14" lengthAdjust="spacing" text-decoration="underline" textLength="451" x="114.5" y="227.5352">&lt;???&gt; repot(from: PlantBed&lt;???&gt;, PlantColor c, to: PlantBed&lt;???&gt;)</text></g><!--SRC=[AqXCpavCJrN8pyZLAyvFAqdKIpGmrIijoSmfLgZcKW02xSIaufAYnEGIXUISnE9YXO2SnBmIfzIKKA2Qp99AY2AmmkhYaiIIpEHQ1HjxUtixXQBKWlmIZRIY_5mhk2QmZ0w4wvoVar-aaAoZK9AFfa0JR6OjLoq0]--></g></svg>