<?xml version="1.0" encoding="UTF-8" standalone="no"?><svg xmlns="http://www.w3.org/2000/svg" xmlns:xlink="http://www.w3.org/1999/xlink" contentScriptType="application/ecmascript" contentStyleType="text/css" height="124px" preserveAspectRatio="none" style="width:484px;height:124px;" version="1.1" viewBox="0 0 484 124" width="484px" zoomAndPan="magnify"><defs><filter height="300%" id="fbmn6ov4d5ps8" width="300%" x="-1" y="-1"><feGaussianBlur result="blurOut" stdDeviation="2.0"/><feColorMatrix in="blurOut" result="blurOut2" type="matrix" values="0 0 0 0 0 0 0 0 0 0 0 0 0 0 0 0 0 0 .4 0"/><feOffset dx="4.0" dy="4.0" in="blurOut2" result="blurOut3"/><feBlend in="SourceGraphic" in2="blurOut3" mode="normal"/></filter></defs><g><!--cluster ohm.softa.a05.utils--><polygon fill="#FFFFFF" filter="url(#fbmn6ov4d5ps8)" points="14,16,157,16,164,38.4883,462,38.4883,462,112,14,112,14,16" style="stroke: #000000; stroke-width: 1.5;"/><line style="stroke: #000000; stroke-width: 1.5;" x1="14" x2="164" y1="38.4883" y2="38.4883"/><text fill="#000000" font-family="sans-serif" font-size="14" font-weight="bold" lengthAdjust="spacingAndGlyphs" textLength="137" x="18" y="31.5352">ohm.softa.a05.utils</text><!--class PlantBedUtility--><rect fill="#FEFECE" filter="url(#fbmn6ov4d5ps8)" height="60.9551" id="PlantBedUtility" style="stroke: #A80036; stroke-width: 1.5;" width="432" x="22" y="43"/><ellipse cx="187.75" cy="59" fill="#A9DCDF" rx="11" ry="11" style="stroke: #A80036; stroke-width: 1.0;"/><path d="M187.8633,54.5981 L186.7095,59.6699 L189.0254,59.6699 Z M186.3691,52.3569 L189.3657,52.3569 L192.7109,64.75 L190.2622,64.75 L189.4985,61.687 L186.2197,61.687 L185.4727,64.75 L183.0239,64.75 Z "/><ellipse cx="213.25" cy="58.5" fill="#84BE84" rx="3" ry="3" style="stroke: #038048; stroke-width: 1.0;"/><text fill="#000000" font-family="sans-serif" font-size="12" font-style="italic" lengthAdjust="spacingAndGlyphs" textLength="81" x="219.25" y="63.5352">PlantBedUtility</text><line style="stroke: #A80036; stroke-width: 1.5;" x1="23" x2="453" y1="75" y2="75"/><line style="stroke: #A80036; stroke-width: 1.5;" x1="23" x2="453" y1="83" y2="83"/><ellipse cx="33" cy="94.9775" fill="#84BE84" rx="3" ry="3" style="stroke: #038048; stroke-width: 1.0;"/><text fill="#000000" font-family="sans-serif" font-size="11" lengthAdjust="spacingAndGlyphs" text-decoration="underline" textLength="406" x="42" y="97.6348">&lt;T&gt; splitBedByColor(bed: PlantBed&lt;T&gt;) : Map&lt;PlantColor, SimpleList&lt;T&gt;&gt;</text><line style="stroke: #000000; stroke-width: 1.0;" x1="42" x2="448" y1="99.6348" y2="99.6348"/><!--
@startuml
package ohm.softa.a05.utils {
    +abstract class PlantBedUtility{
        +{static} <T> splitBedByColor(bed: PlantBed<T>) : Map<PlantColor, SimpleList<T>>
    }
}
@enduml

PlantUML version 1.2019.03(Sun Mar 10 12:04:44 CET 2019)
(GPL source distribution)
Java Runtime: OpenJDK Runtime Environment
JVM: OpenJDK 64-Bit Server VM
Java Version: 11.0.2+9
Operating System: Mac OS X
OS Version: 10.14.4
Default Encoding: UTF-8
Language: en
Country: GB
--></g></svg>